<?xml version="1.0" standalone="no"?><!-- Generator: Gravit.io --><svg xmlns="http://www.w3.org/2000/svg" xmlns:xlink="http://www.w3.org/1999/xlink" style="isolation:isolate" viewBox="0 0 200 80" width="200" height="80"><defs><clipPath id="_clipPath_RIEJ5bu4GbRyYkqeqDiH2Nb84E8nayY8"><rect width="200" height="80"/></clipPath></defs><g clip-path="url(#_clipPath_RIEJ5bu4GbRyYkqeqDiH2Nb84E8nayY8)"><path d=" M 16.439 15.045 C 5.208 -0.805 41.597 0.242 49.071 10 C 56.544 19.758 93.773 41.914 103 28 C 112.227 14.086 118.268 7.231 129.562 23.747 Q 140.855 40.263 199 47.677 Q 152.27 73.72 176 75 C 199.73 76.28 116.854 89.881 94 56 C 80.279 35.658 96.297 106.265 49.071 60.729 Q -0.195 13.227 24 64 Q -2.268 47.573 1 32 C 4.268 16.427 27.671 30.895 16.439 15.045 Z " fill="rgb(51,49,56)" vector-effect="non-scaling-stroke" stroke-width="1" stroke-dasharray="8,6,1,6" stroke="rgb(255,49,46)" stroke-linejoin="miter" stroke-linecap="square" stroke-miterlimit="3"/><g transform="matrix(0.982,0.191,-0.191,0.982,24.696,16)"><text transform="matrix(1,0,0,1,0,21.863)" style="font-family:'Courier';font-weight:400;font-size:29px;font-style:normal;fill:#ebeff4;stroke:none;">Text Away</text></g></g></svg>